# AST/ASF file generated using VICON BodyLanguage
# -----------------------------------------------
:version 1.10
:name VICON
:units
  mass 1.0
  length 0.45
  angle deg
:documentation
   .ast/.asf automatically generated from VICON data using
   VICON BodyBuilder and BodyLanguage model FoxedUp or BRILLIANT.MOD
:root
   order TX TY TZ RX RY RZ
   axis XYZ
   position 0 0 0  
   orientation 0 0 0 
:bonedata
  begin
     id 1 
     name lhipjoint
     direction 0.588788 -0.725889 0.355548 
     length 2.37778 
     axis 0 0 0  XYZ
  end
  begin
     id 2 
     name lfemur
     direction 0.34202 -0.939693 0  
     length 6.86393  
     axis 0 0 20  XYZ
    dof rx ry rz
    limits (-160.0 20.0)
           (-70.0 70.0)
           (-60.0 70.0)
  end
  begin
     id 3 
     name ltibia
     direction 0.34202 -0.939693 0   
     length 7.32851   
     axis 0 0 20   XYZ
    dof rx
    limits (-10.0 170.0)
  end
  begin
     id 4 
     name lfoot
     direction 0.0626533 -0.172138 0.983078   
     length 1.98929   
     axis -90 7.62852e-016 20   XYZ
    dof rx rz
    limits (-45.0 90.0)
           (-70.0 20.0)
  end
  begin
     id 5 
     name ltoes
     direction 1.53647e-011 -4.21734e-011 1   
     length 1.00479   
     axis -90 7.62852e-016 20   XYZ
    dof rx
    limits (-90.0 20.0)
  end
  begin
     id 6 
     name rhipjoint
     direction -0.59141 -0.724168 0.354705   
     length 2.38343  
     axis 0 0 0  XYZ 
  end
  begin
     id 7 
     name rfemur
     direction -0.34202 -0.939693 0   
     length 6.95589   
     axis 0 0 -20   XYZ
    dof rx ry rz
    limits (-160.0 20.0)
           (-70.0 70.0)
           (-70.0 60.0)
  end
  begin
     id 8 
     name rtibia
     direction -0.34202 -0.939693 0   
     length 7.32327   
     axis 0 0 -20   XYZ
    dof rx
    limits (-10.0 170.0)
 end
 begin
     id 9 
     name rfoot
     direction -0.0660461 -0.18146 0.981178   
     length 1.85272  
     axis -90 -7.62852e-016 -20   XYZ
    dof rx rz
    limits (-45.0 90.0)
           (-20.0 70.0)
  end
  begin
     id 10 
     name rtoes
     direction -1.53586e-011 -4.21988e-011 1   
     length 0.93746   
     axis -90 -7.62852e-016 -20   XYZ
    dof rx
    limits (-90.0 20.0)
  end
  begin
     id 11 
     name lowerback
     direction -0.0107982 0.991059 0.13299   
     length 1.98691   
     axis 0 0 0   XYZ
    dof rx ry rz
    limits (-20.0 45.0)
           (-30.0 30.0)
           (-30.0 30.0)
  end
  begin
     id 12 
     name upperback
     direction 0.0076296 0.999916 0.0104576   
     length 1.99501   
     axis 0 0 0   XYZ
    dof rx ry rz
    limits (-20.0 45.0)
           (-30.0 30.0)
           (-30.0 30.0)
  end
  begin
     id 13 
     name thorax
     direction 0.01176 0.998615 -0.0512909   
     length 2.03144   
     axis 0 0 0   XYZ
    dof rx ry rz
    limits (-20.0 45.0)
           (-30.0 30.0)
           (-30.0 30.0)
  end
  begin
     id 14 
     name lowerneck
     direction -0.0171909 0.999644 0.0204011   
     length 1.71818   
     axis 0 0 0   XYZ
    dof rx ry rz
    limits (-20.0 45.0)
           (-30.0 30.0)
           (-30.0 30.0)
  end
  begin
     id 15 
     name upperneck
     direction 0.0250902 0.997482 -0.0663316   
     length 1.66199   
     axis 0 0 0   XYZ
    dof rx ry rz
    limits (-20.0 45.0)
           (-30.0 30.0)
           (-30.0 30.0)
  end
  begin
     id 16
     name head
     direction 0.00881535 0.99956 -0.0283365  
     length 1.81545  
     axis 0 0 0   XYZ
    dof rx ry rz
    limits (-20.0 45.0)
           (-30.0 30.0)
           (-30.0 30.0)
  end
  begin
     id 17 
     name lclavicle
     direction 0.840411 0.486876 -0.238035  
     length 3.30409  
     axis 0 0 0   XYZ
    dof ry rz
    limits (-20.0 10.0)
           (0.0 20.0)
  end
  begin
     id 18 
     name lhumerus
     direction 1 -4.48977e-011 -5.16239e-027   
     length 4.62672   
     axis 180 -30 -90   XYZ
    dof rx ry rz
    limits (-60.0 90.0)
           (-90.0 90.0)
           (-90.0 90.0)
  end
  begin
     id 19
     name lradius
     direction 1 -4.48977e-011 -8.71171e-027   
     length 3.11018   
     axis 180 -30 -90   XYZ
    dof rx
    limits (-10.0 170.0)
  end
  begin
     id 20
     name lwrist
     direction 1 -4.48912e-011 -1.03764e-026   
     length 1.55509   
     axis 9.09556e-015 90 90   XYZ
    dof ry
    limits (-180.0 0.0)
 end
  begin
     id 21 
     name lhand
     direction 1 -4.49072e-011 -2.07528e-026   
     length 0.743834   
     axis 1.3242e-014 90 90   XYZ
    dof rx rz
    limits (-90.0 90.0)
           (-45.0 45.0)
  end
  begin
     id 22 
     name lfingers
     direction 1 -4.48909e-011 -4.15056e-026   
     length 0.599698   
     axis 2.64841e-014 90 90   XYZ
    dof rx
    limits (0.0 90.0)
  end
  begin
     id 23
     name lthumb
     direction 0.707107 -6.35013e-011 0.707107   
     length 0.86105   
     axis -90 45 2.85299e-015   XYZ
    dof rx rz
    limits (-45.0 45.0)
           (-45.0 45.0)
  end
  begin
     id 24 
     name rclavicle
     direction -0.835208 0.500237 -0.228452   
     length 3.2716  
     axis 0 0 0   XYZ 
    dof ry rz
    limits (-10.0 20.0)
           (-20.0 0.0)
  end
  begin
     id 25 
     name rhumerus
     direction -1 -4.48978e-011 -5.1953e-028  
     length 4.55919   
     axis 180 30 90   XYZ
    dof rx ry rz
    limits (-90.0 60.0)
           (-90.0 90.0)
           (-90.0 90.0)
  end
  begin
     id 26 
     name rradius
     direction -1 -4.48961e-011 -5.99546e-027   
     length 3.22748   
     axis 180 30 90   XYZ
    dof rx
    limits (-10.0 170.0)
  end
  begin
     id 27 
     name rwrist
     direction -1 -4.48986e-011 -1.03764e-026   
     length 1.61374   
     axis 9.09556e-015 -90 -90   XYZ
    dof ry
    limits (-180.0 0.0)
  end
  begin
     id 28
     name rhand
     direction -1 -4.4899e-011 -2.07528e-026   
     length 0.700882   
     axis 1.3242e-014 -90 -90   XYZ
    dof rx rz
    limits (-90.0 90.0)
           (-45.0 45.0)
  end
  begin
     id 29
     name rfingers
     direction -1 -4.48991e-011 -4.15056e-026   
     length 0.565069   
     axis 2.64841e-014 -90 -90   XYZ
    dof rx
    limits (0.0 90.0)
  end
  begin
     id 30
     name rthumb
     direction -0.707107 -6.34804e-011 0.707107   
     length 0.811329   
     axis -90 -45 -2.85299e-015   XYZ
    dof rx rz
    limits (-45.0 45.0)
           (-45.0 45.0)
  end
:hierarchy
  begin
    root lhipjoint rhipjoint lowerback
    lhipjoint lfemur
    lfemur ltibia
    ltibia lfoot
    lfoot ltoes
    rhipjoint rfemur
    rfemur rtibia
    rtibia rfoot
    rfoot rtoes
    lowerback upperback
    upperback thorax
    thorax lowerneck lclavicle rclavicle
    lowerneck upperneck
    upperneck head
    lclavicle lhumerus
    lhumerus lradius
    lradius lwrist
    lwrist lhand lthumb
    lhand lfingers
    rclavicle rhumerus
    rhumerus rradius
    rradius rwrist
    rwrist rhand rthumb
    rhand rfingers
  end

#!OML:ASF F:\VICON\USERDATA\INSTALL\SteveWalk\SteveWalk.ASF
:FULLY-SPECIFIED
:DEGREES
141
root 0.457231 16.4674 -11.7404 18.055 0.228845 2.54704
lowerback -13.9288 -1.08811 -4.12946
upperback -5.619 -0.895771 -0.252586
thorax 1.93821 -0.40119 1.92836
lowerneck -5.73456 0.122768 -0.407536
upperneck 8.40714 0.273935 -0.775174
head 3.74717 0.0882097 -0.170331
rclavicle 9.31648e-015 -1.50331e-015
rhumerus -51.8972 -29.9605 -60.8473
rradius 14.1326
rwrist 16.882
rhand -11.3426 -34.9624
rfingers 7.12502
rthumb 14.6905 -64.4219
lclavicle 9.31648e-015 -1.50331e-015
lhumerus -32.9023 18.2655 76.4878
lradius 19.913
lwrist -8.44431
lhand -18.6135 -17.4034
lfingers 7.12502
lthumb 7.6782 12.4372
rfemur -46.4487 -6.04312 20.8391
rtibia 66.0855
rfoot -11.6944 -2.76657
rtoes -13.194
lfemur -27.61 2.80991 -26.143
ltibia 34.2874
lfoot -22.5702 -3.76068
ltoes -4.04222
142
root 0.450582 16.4576 -11.5313 18.1611 0.780918 2.38081
lowerback -13.995 -1.31983 -4.05603
upperback -5.6386 -1.21506 -0.0196955
thorax 1.97689 -0.559178 2.08002
lowerneck -5.63246 0.129859 -0.42675
upperneck 8.41581 0.294702 -0.886968
head 3.73046 0.093145 -0.20282
rclavicle 5.55141e-015 2.12451e-015
rhumerus -56.5383 -34.2301 -52.8885
rradius 12.7214
rwrist 24.8842
rhand -11.2396 -34.526
rfingers 7.12502
rthumb 14.7897 -63.9783
lclavicle 5.55141e-015 2.12451e-015
lhumerus -31.5631 15.9546 77.9889
lradius 21.0818
lwrist -5.98376
lhand -18.7091 -17.6683
lfingers 7.12502
lthumb 7.5859 12.1756
rfemur -47.4213 -6.09975 21.4949
rtibia 63.9651
rfoot -12.106 -4.02036
rtoes -12.8947
lfemur -26.852 3.603 -25.9204
ltibia 34.1156
lfoot -23.3754 -4.60836
ltoes -4.38701
143
root 0.448522 16.448 -11.3129 17.9837 1.52779 2.37524
lowerback -13.878 -1.57821 -4.04868
upperback -5.54859 -1.56461 0.130778
thorax 2.03563 -0.73417 2.17933
lowerneck -5.33448 0.122377 -0.439096
upperneck 8.19567 0.284789 -0.92682
head 3.59478 0.0879556 -0.213827
rclavicle -4.90788e-015 -1.59028e-015
rhumerus -63.7181 -39.1572 -41.2451
rradius 11.3043
rwrist 35.2354
rhand -11.5309 -34.0596
rfingers 7.12502
rthumb 14.509 -63.5322
lclavicle -4.90788e-015 -1.59028e-015
lhumerus -30.2792 13.3813 79.4131
lradius 22.507
lwrist -3.28522
lhand -18.7588 -16.5338
lfingers 7.12502
lthumb 7.53794 13.3119
rfemur -47.8389 -6.38025 21.9118
rtibia 61.609
rfoot -12.892 -5.5793
rtoes -12.9241
lfemur -25.7067 4.12949 -25.7464
ltibia 33.8513
lfoot -23.9834 -5.8472
ltoes -3.41974
144
root 0.447204 16.4343 -11.0949 17.8982 1.97453 2.47692
lowerback -13.7376 -1.72337 -4.1545
upperback -5.49362 -1.74965 0.191119
thorax 2.03482 -0.825342 2.27519
lowerneck -5.28827 0.0580997 -0.426195
upperneck 8.20642 0.195581 -0.909701
head 3.58922 0.0449738 -0.214708
rclavicle 1.78844e-014 1.1281e-014
rhumerus -73.1178 -42.9625 -27.2677
rradius 10.4961
rwrist 46.1549
rhand -11.7034 -34.4261
rfingers 7.12502
rthumb 14.3428 -63.9106
lclavicle 1.78844e-014 1.1281e-014
lhumerus -28.9373 10.8714 80.5641
lradius 23.7703
lwrist -0.987797
lhand -18.9567 -15.7905
lfingers 7.12502
lthumb 7.3469 14.062
rfemur -48.2624 -6.48992 22.0375
rtibia 59.0788
rfoot -12.7403 -5.71937
rtoes -7.91168
lfemur -24.585 4.44609 -25.702
ltibia 33.4585
lfoot -24.3219 -6.8262
ltoes -1.86551
145
root 0.444013 16.4292 -10.8818 18.0904 2.19399 2.49204
lowerback -13.7574 -1.82421 -4.22892
upperback -5.56895 -1.87709 0.301449
thorax 1.98054 -0.884784 2.41321
lowerneck -5.33449 0.0333283 -0.482385
upperneck 8.33057 0.164989 -0.866801
head 3.64152 0.0291468 -0.192457
rclavicle 4.08285e-015 -1.88845e-015
rhumerus -80.9838 -44.0519 -16.0885
rradius 10.2382
rwrist 53.8157
rhand -12.2148 -35.0157
rfingers 7.12502
rthumb 13.85 -64.5345
lclavicle 4.08285e-015 -1.88845e-015
lhumerus -27.7908 8.82885 81.3914
lradius 24.8155
lwrist 0.733834
lhand -19.221 -15.4552
lfingers 7.12502
lthumb 7.09187 14.4059
rfemur -49.0305 -6.367 22.1835
rtibia 56.3272
rfoot -14.3267 -4.41062
rtoes -4.48407
lfemur -23.6825 4.69779 -25.6083
ltibia 32.8997
lfoot -24.512 -7.40252
ltoes -1.75177
146
root 0.439435 16.4248 -10.6709 18.2047 2.65955 2.54506
lowerback -13.7552 -1.99831 -4.33767
upperback -5.59353 -2.09678 0.419561
thorax 1.97683 -0.991323 2.56398
lowerneck -5.2236 -0.0180329 -0.439247
upperneck 8.22143 0.0996903 -0.972921
head 3.58167 -0.00550353 -0.237697
rclavicle 5.58771e-015 -3.8763e-015
rhumerus -86.4996 -43.6773 -8.28934
rradius 10.2212
rwrist 58.4828
rhand -13.4059 -35.4181
rfingers 7.12502
rthumb 12.7019 -65.0118
lclavicle 5.58771e-015 -3.8763e-015
lhumerus -26.7027 6.97469 82.0857
lradius 26.0328
lwrist 2.30184
lhand -19.3024 -14.2994
lfingers 7.12502
lthumb 7.01329 15.5644
rfemur -49.5836 -6.50747 22.372
rtibia 53.3452
rfoot -14.6556 -4.94381
rtoes -4.19759
lfemur -22.6126 4.86366 -25.4592
ltibia 32.21
lfoot -24.6803 -8.14509
ltoes -1.96221
147
root 0.438884 16.421 -10.4549 18.179 3.23199 2.67614
lowerback -13.6968 -2.16166 -4.42546
upperback -5.48742 -2.30298 0.471024
thorax 2.07772 -1.09619 2.63439
lowerneck -5.27972 -0.136976 -0.195616
upperneck 8.09409 -0.0559292 -1.27141
head 3.54806 -0.0869853 -0.385565
rclavicle -1.25234e-014 -1.20265e-014
rhumerus -90.9516 -42.865 -1.93823
rradius 10.2746
rwrist 62.0046
rhand -14.6974 -34.9709
rfingers 7.12502
rthumb 11.4566 -64.6379
lclavicle -1.25234e-014 -1.20265e-014
lhumerus -25.4539 4.95848 82.7147
lradius 27.4561
lwrist 3.99716
lhand -19.2795 -12.3579
lfingers 7.12502
lthumb 7.03532 17.5052
rfemur -49.8068 -6.88148 22.4915
rtibia 50.181
rfoot -13.9588 -5.88403
rtoes -5.7088
lfemur -21.3055 4.99336 -25.3543
ltibia 31.429
lfoot -24.87 -8.8476
ltoes -1.39438
148
root 0.440032 16.4197 -10.235 18.1686 3.70172 2.66658
lowerback -13.6269 -2.26492 -4.27943
upperback -5.43898 -2.46126 0.510686
thorax 2.1003 -1.17733 2.56962
lowerneck -5.26249 -0.199593 0.0025357
upperneck 7.94997 -0.145478 -1.42733
head 3.49411 -0.130965 -0.475026
rclavicle 1.71405e-014 3.08116e-015
rhumerus -95.9574 -41.6646 5.45889
rradius 10.2512
rwrist 66.412
rhand -15.8028 -34.0669
rfingers 7.12502
rthumb 10.3904 -63.7902
lclavicle 1.71405e-014 3.08116e-015
lhumerus -24.3206 3.02337 83.1137
lradius 28.78
lwrist 5.54044
lhand -19.5821 -12.0609
lfingers 7.12502
lthumb 6.74322 17.8117
rfemur -49.9179 -7.11124 22.6755
rtibia 46.8395
rfoot -13.532 -6.25562
rtoes -9.68528
lfemur -19.9912 5.17608 -25.1209
ltibia 30.5974
lfoot -25.0744 -9.37686
ltoes -2.64049
149
root 0.434604 16.411 -10.0191 18.1468 4.1125 2.59978
lowerback -13.4608 -2.36727 -4.15173
upperback -5.43827 -2.62229 0.572422
thorax 2.02221 -1.25694 2.54217
lowerneck -5.22939 -0.228642 -0.0223018
upperneck 7.78693 -0.193944 -1.31482
head 3.43039 -0.150303 -0.435074
rclavicle 4.00365e-015 -5.66536e-015
rhumerus -100.062 -40.0677 11.762
rradius 10.3137
rwrist 70.2095
rhand -16.1957 -34.1592
rfingers 7.12502
rthumb 10.0114 -63.9011
lclavicle 4.00365e-015 -5.66536e-015
lhumerus -23.4008 1.36573 83.308
lradius 30.1125
lwrist 6.7148
lhand -20.136 -13.7495
lfingers 7.12502
lthumb 6.20847 16.1395
rfemur -49.9414 -7.09447 22.8307
rtibia 43.399
rfoot -13.3143 -6.603
rtoes -14.6472
lfemur -18.6845 5.31946 -24.7859
ltibia 29.7179
lfoot -25.1901 -9.90119
ltoes -2.57603
150
root 0.424474 16.3932 -9.80727 18.0556 4.54952 2.6634
lowerback -13.2565 -2.51451 -4.28728
upperback -5.30046 -2.8102 0.663907
thorax 2.08126 -1.35196 2.68861
lowerneck -5.4687 -0.29643 -0.173659
upperneck 7.65592 -0.284817 -1.16115
head 3.43063 -0.193753 -0.362686
rclavicle -7.24322e-015 0
rhumerus -101.186 -38.854 13.6398
rradius 10.4728
rwrist 70.7152
rhand -15.7923 -35.443
rfingers 7.12502
rthumb 10.4005 -65.1657
lclavicle -7.24322e-015 0
lhumerus -22.2099 -0.0635009 83.4702
lradius 31.323
lwrist 7.65635
lhand -20.8261 -14.5975
lfingers 7.12502
lthumb 5.54229 15.3101
rfemur -49.8271 -6.95431 22.7005
rtibia 39.9237
rfoot -13.0601 -6.75023
rtoes -17.0558
lfemur -17.2725 5.49627 -24.5516
ltibia 28.7705
lfoot -25.2606 -10.4204
ltoes -2.26634
151
root 0.417092 16.3715 -9.59325 17.9761 4.95157 2.72277
lowerback -13.1495 -2.63726 -4.40045
upperback -5.14892 -2.96356 0.745743
thorax 2.20406 -1.43172 2.81414
lowerneck -5.34558 -0.367368 -0.177175
upperneck 7.26267 -0.38785 -1.11684
head 3.27004 -0.241188 -0.350042
rclavicle 3.53588e-014 -3.97569e-016
rhumerus -100.785 -37.9279 13.0728
rradius 10.6642
rwrist 69.0919
rhand -15.5339 -36.8522
rfingers 7.12502
rthumb 10.6498 -66.5623
lclavicle 3.53588e-014 -3.97569e-016
lhumerus -20.929 -1.36557 83.5514
lradius 32.3092
lwrist 8.41661
lhand -21.6112 -14.6429
lfingers 7.12502
lthumb 4.78418 15.2831
rfemur -49.6337 -6.70704 22.3751
rtibia 36.468
rfoot -12.9205 -6.02099
rtoes -15.0417
lfemur -15.801 5.82432 -24.3475
ltibia 27.7415
lfoot -25.3977 -10.5968
ltoes -4.15556
152
root 0.412622 16.3577 -9.37524 17.915 5.44521 2.87635
lowerback -13.0451 -2.78416 -4.48354
upperback -5.08184 -3.15155 0.755122
thorax 2.23805 -1.52636 2.8435
lowerneck -4.94857 -0.417206 -0.0378735
upperneck 6.86149 -0.469409 -1.14837
head 3.05544 -0.276447 -0.384475
rclavicle 2.21272e-014 2.0276e-014
rhumerus -100.977 -36.8279 13.4515
rradius 10.8188
rwrist 68.0029
rhand -15.7443 -37.5172
rfingers 7.12502
rthumb 10.4468 -67.2377
lclavicle 2.21272e-014 2.0276e-014
lhumerus -20.0332 -2.62163 83.5169
lradius 33.5768
lwrist 9.27479
lhand -21.8825 -14.8759
lfingers 7.12502
lthumb 4.52223 15.0558
rfemur -49.3719 -6.59641 21.8932
rtibia 33.041
rfoot -12.7948 -5.0466
rtoes -12.3918
lfemur -14.3298 6.08353 -24.2314
ltibia 26.6666
lfoot -25.5107 -10.339
ltoes -8.47392
